Coordinates
version=1
nRows=19
nColumns=24
inDegrees=yes

Units are S.I. units (second, meters, Newtons, ...)
Angles are in degrees.

endheader
time	pelvis_tilt	pelvis_list	pelvis_rotation	pelvis_tx	pelvis_ty	pelvis_tz	hip_flexion_r	hip_adduction_r	hip_rotation_r	knee_angle_r	ankle_angle_r	subtalar_angle_r	mtp_angle_r	hip_flexion_l	hip_adduction_l	hip_rotation_l	knee_angle_l	ankle_angle_l	subtalar_angle_l	mtp_angle_l	lumbar_extension	lumbar_bending	lumbar_rotation
      0.80450000	     -0.31549930	     -0.93631338	      1.41376105	     -0.47526619	      0.99721324	      0.33542495	     10.14372996	      5.02863459	     -5.30740926	    -16.91925530	      6.55618516	     -3.85892138	      4.18471423	     18.24091829	     -0.23516390	      1.10402186	    -69.75395319	     -7.68455919	     -8.48317742	      2.57184052	     -0.93401815	      3.44892621	      1.91733768
      0.80866667	     -0.30901059	     -0.85150519	      1.35183018	     -0.47026079	      0.99784865	      0.33560174	      9.64524611	      4.95647654	     -5.30782055	    -16.60024381	      6.67145057	     -3.73680853	      4.18113737	     18.83700485	     -0.11223201	      1.09238520	    -69.64938426	     -7.05848410	     -8.86824575	      2.52675764	     -0.96472380	      3.37166949	      1.97078021
      0.81283333	     -0.21805499	     -0.76586013	      1.28830931	     -0.46523169	      0.99855605	      0.33577472	      9.05200759	      4.87446906	     -5.37209530	    -16.27522223	      6.79202101	     -3.36101310	      4.16084265	     19.32090198	     -0.00090720	      1.05734919	    -69.48002097	     -6.49225593	     -9.31279856	      2.32318108	     -1.12120746	      3.27153131	      2.17826071
      0.81700000	     -0.17410980	     -0.65461064	      1.21901138	     -0.46023800	      0.99918090	      0.33592176	      8.53135920	      4.75481284	     -5.46300238	    -15.99205151	      6.89227292	     -3.00045948	      4.10947683	     19.83967315	      0.14950455	      1.02794203	    -69.25226221	     -5.87700204	     -9.68958987	      1.83526882	     -1.22240417	      3.14605101	      2.32853844
      0.82116667	     -0.16345582	     -0.59557904	      1.13146285	     -0.45525076	      0.99971860	      0.33614781	      8.02073643	      4.71786638	     -5.41524929	    -15.65123490	      7.02720010	     -2.89579717	      4.10727947	     20.38988082	      0.21892922	      0.97592966	    -68.99016695	     -5.29752387	    -10.07238542	      1.78409896	     -1.25530981	      3.10494311	      2.36456840
      0.82533333	     -0.07599593	     -0.51100654	      1.04241979	     -0.45023561	      1.00034132	      0.33636360	      7.42079501	      4.64435527	     -5.42513431	    -15.29936868	      7.13769805	     -2.63913122	      4.09286411	     20.82668732	      0.31044160	      0.90644840	    -68.64848936	     -4.77035533	    -10.47336279	      1.60561277	     -1.39946045	      3.00777886	      2.54246632
      0.82950000	     -0.02488508	     -0.41862434	      0.94400553	     -0.44526496	      1.00087181	      0.33657272	      6.87997890	      4.55623794	     -5.44211043	    -14.98217145	      7.25515408	     -2.35427142	      4.07767005	     21.29122572	      0.41241861	      0.83434819	    -68.25888590	     -4.22134067	    -10.83598317	      1.38960860	     -1.50487145	      2.90814408	      2.69553393
      0.83366667	     -0.02353783	     -0.35499157	      0.83768554	     -0.44032742	      1.00127154	      0.33680818	      6.40344744	      4.50445340	     -5.42308917	    -14.68158790	      7.36145675	     -2.20328104	      4.07371863	     21.80630664	      0.47231721	      0.75429472	    -67.84061562	     -3.64714260	    -11.16756035	      1.30520274	     -1.54881453	      2.83833377	      2.75609274
      0.83783333	      0.00507056	     -0.24986060	      0.74646021	     -0.43536746	      1.00168166	      0.33695069	      5.90967537	      4.38191331	     -5.53471201	    -14.40823273	      7.47085685	     -1.74793244	      4.03612047	     22.26130122	      0.60071158	      0.69970421	    -67.34224836	     -3.11085588	    -11.46305242	      0.70897399	     -1.62056114	      2.73957749	      2.99231169
      0.84200000	      0.05068365	     -0.19029848	      0.63559040	     -0.43042700	      1.00209015	      0.33721084	      5.35726326	      4.34469530	     -5.44857708	    -14.04530842	      7.59321678	     -1.62336735	      4.03026042	     22.68816136	      0.64539441	      0.61306764	    -66.80373721	     -2.60835331	    -11.74007376	      0.54908798	     -1.72980753	      2.66556942	      3.05203601
      0.84616667	      0.05900789	     -0.13770281	      0.51374873	     -0.42550939	      1.00238329	      0.33744586	      4.87671572	      4.30163536	     -5.41613684	    -13.74308563	      7.68996983	     -1.46234065	      4.02904171	     23.14153786	      0.68248159	      0.52179668	    -66.22434041	     -2.06990430	    -11.98561661	      0.45942263	     -1.77996617	      2.62211473	      3.13505655
      0.85033333	      0.06608740	     -0.06868803	      0.40692016	     -0.42061098	      1.00263990	      0.33764900	      4.39347208	      4.24001842	     -5.37232827	    -13.43032327	      7.79438821	     -1.27793414	      4.02997903	     23.57959305	      0.74975524	      0.45410715	    -65.58889919	     -1.56011353	    -12.19753154	      0.38702874	     -1.85539037	      2.55031262	      3.22930778
      0.85450000	      0.11178877	      0.00600739	      0.29842976	     -0.41565926	      1.00291963	      0.33784269	      3.86484934	      4.16143064	     -5.40343086	    -13.11160259	      7.90003046	     -0.96204086	      4.03068969	     23.94613501	      0.81431715	      0.37190814	    -64.88429344	     -1.10649111	    -12.34674161	      0.21370225	     -1.94341559	      2.46452267	      3.42656635
      0.85866667	      0.09271736	      0.07338118	      0.16256031	     -0.41076044	      1.00306485	      0.33804413	      3.43362482	      4.09328323	     -5.36341906	    -12.84410693	      7.99775728	     -0.77085428	      4.03444247	     24.36848547	      0.86652679	      0.27419820	    -64.13828284	     -0.62627286	    -12.51110634	      0.11881206	     -1.96696281	      2.41264062	      3.49586587
      0.86283333	      0.12696688	      0.13102469	      0.06960614	     -0.40583295	      1.00323961	      0.33820622	      2.91834025	      4.03328735	     -5.38262440	    -12.52088132	      8.10065926	     -0.48908864	      4.04174243	     24.71760019	      0.91974760	      0.22025553	    -63.34385922	     -0.20297927	    -12.59046099	     -0.06172726	     -2.05703086	      2.34699167	      3.65146165
      0.86700000	      0.13827557	      0.19302806	     -0.04434094	     -0.40092702	      1.00333859	      0.33836736	      2.44833232	      3.96625140	     -5.37863830	    -12.23603416	      8.20147016	     -0.23423815	      4.05415994	     25.07016312	      0.97221975	      0.14731788	    -62.49734013	      0.21666811	    -12.66821752	     -0.26999963	     -2.12130822	      2.29227847	      3.76694890
      0.87116667	      0.15162275	      0.25197071	     -0.15722454	     -0.39601144	      1.00341236	      0.33853047	      1.97252404	      3.90371922	     -5.36149834	    -11.94316858	      8.29629284	     -0.01441810	      4.06967344	     25.39826260	      1.01831421	      0.07459961	    -61.59671045	      0.60122522	    -12.71973352	     -0.46652821	     -2.18492820	      2.23473142	      3.86508145
      0.87533333	      0.13669807	      0.29896102	     -0.28924513	     -0.39112409	      1.00339535	      0.33870734	      1.54119738	      3.85514937	     -5.30198209	    -11.67293958	      8.39091397	      0.14471246	      4.08071799	     25.74070473	      1.04109035	     -0.01659567	    -60.65505867	      0.97141894	    -12.75580303	     -0.55427610	     -2.21534818	      2.19553047	      3.91956356
      0.87950000	      0.14627161	      0.33487229	     -0.38535098	     -0.38619303	      1.00336126	      0.33885752	      1.06377160	      3.81808340	     -5.30308320	    -11.36596659	      8.48843888	      0.35491096	      4.09847392	     26.04064694	      1.05936960	     -0.07791582	    -59.67286393	      1.29209671	    -12.72684124	     -0.69774395	     -2.27083907	      2.15109596	      4.04266590
